<svg id="visual" viewBox="0 0 900 600" width="900" height="600" xmlns="http://www.w3.org/2000/svg" xmlns:xlink="http://www.w3.org/1999/xlink" version="1.1"><rect x="0" y="0" width="900" height="600" fill="#002233"></rect><path d="M0 422L21.5 416.2C43 410.3 86 398.7 128.8 376.8C171.7 355 214.3 323 257.2 331.7C300 340.3 343 389.7 385.8 405C428.7 420.3 471.3 401.7 514.2 391.7C557 381.7 600 380.3 642.8 391.8C685.7 403.3 728.3 427.7 771.2 442.3C814 457 857 462 878.5 464.5L900 467L900 601L878.5 601C857 601 814 601 771.2 601C728.3 601 685.7 601 642.8 601C600 601 557 601 514.2 601C471.3 601 428.7 601 385.8 601C343 601 300 601 257.2 601C214.3 601 171.7 601 128.8 601C86 601 43 601 21.5 601L0 601Z" fill="#0066FF" stroke-linecap="round" stroke-linejoin="miter"></path></svg>